<?xml version="1.0" standalone="no"?><!DOCTYPE svg PUBLIC "-//W3C//DTD SVG 1.1//EN" "http://www.w3.org/Graphics/SVG/1.1/DTD/svg11.dtd"><svg xmlns:xlink="http://www.w3.org/1999/xlink" version="1.1" class="highcharts-root" style="font-family:&quot;Lucida Grande&quot;, &quot;Lucida Sans Unicode&quot;, Arial, Helvetica, sans-serif;font-size:12px;" xmlns="http://www.w3.org/2000/svg" width="600" height="400" viewBox="0 0 600 400"><desc>Created with Highstock 6.1.0</desc><defs><clipPath id="highcharts-5s0t7wo-8"><rect x="0" y="0" width="519" height="225" fill="none"></rect></clipPath><clipPath id="highcharts-5s0t7wo-9"><rect x="0" y="0" width="519" height="225" fill="none"></rect></clipPath><clipPath id="highcharts-5s0t7wo-10"><rect x="71" y="72" width="519" height="225" fill="none"></rect></clipPath></defs><rect fill="#ffffff" class="highcharts-background" x="0" y="0" width="600" height="400" rx="0" ry="0"></rect><rect fill="none" class="highcharts-plot-background" x="71" y="72" width="519" height="225"></rect><g class="highcharts-pane-group"></g><g class="highcharts-grid highcharts-xaxis-grid "><path fill="none" class="highcharts-grid-line" d="M 87.5 72 L 87.5 297" opacity="1"></path><path fill="none" class="highcharts-grid-line" d="M 208.5 72 L 208.5 297" opacity="1"></path><path fill="none" class="highcharts-grid-line" d="M 330.5 72 L 330.5 297" opacity="1"></path><path fill="none" class="highcharts-grid-line" d="M 451.5 72 L 451.5 297" opacity="1"></path><path fill="none" class="highcharts-grid-line" d="M 572.5 72 L 572.5 297" opacity="1"></path></g><g class="highcharts-grid highcharts-yaxis-grid "><path fill="none" stroke="#e6e6e6" stroke-width="1" class="highcharts-grid-line" d="M 71 297.5 L 590 297.5" opacity="1"></path><path fill="none" stroke="#e6e6e6" stroke-width="1" class="highcharts-grid-line" d="M 71 252.5 L 590 252.5" opacity="1"></path><path fill="none" stroke="#e6e6e6" stroke-width="1" class="highcharts-grid-line" d="M 71 207.5 L 590 207.5" opacity="1"></path><path fill="none" stroke="#e6e6e6" stroke-width="1" class="highcharts-grid-line" d="M 71 162.5 L 590 162.5" opacity="1"></path><path fill="none" stroke="#e6e6e6" stroke-width="1" class="highcharts-grid-line" d="M 71 117.5 L 590 117.5" opacity="1"></path><path fill="none" stroke="#e6e6e6" stroke-width="1" class="highcharts-grid-line" d="M 71 71.5 L 590 71.5" opacity="1"></path></g><rect fill="none" class="highcharts-plot-border" x="71" y="72" width="519" height="225"></rect><g class="highcharts-axis highcharts-xaxis "><path fill="none" class="highcharts-tick" stroke="#ccd6eb" stroke-width="1" d="M 87.5 297 L 87.5 307" opacity="1"></path><path fill="none" class="highcharts-tick" stroke="#ccd6eb" stroke-width="1" d="M 208.5 297 L 208.5 307" opacity="1"></path><path fill="none" class="highcharts-tick" stroke="#ccd6eb" stroke-width="1" d="M 330.5 297 L 330.5 307" opacity="1"></path><path fill="none" class="highcharts-tick" stroke="#ccd6eb" stroke-width="1" d="M 451.5 297 L 451.5 307" opacity="1"></path><path fill="none" class="highcharts-tick" stroke="#ccd6eb" stroke-width="1" d="M 572.5 297 L 572.5 307" opacity="1"></path><path fill="none" class="highcharts-axis-line" stroke="#ccd6eb" stroke-width="1" d="M 71 297.5 L 590 297.5"></path></g><g class="highcharts-axis highcharts-yaxis "><text x="28.5" text-anchor="middle" transform="translate(0,0) rotate(270 28.5 184.5)" class="highcharts-axis-title" style="color:#6e6e70;font-family:&quot;Lucida Grande&quot;, &quot;Lucida Sans Unicode&quot;, Verdana, Arial, Helvetica, sans-serif;font-size:14px;font-weight:normal;font-style:normal;fill:#6e6e70;" y="184.5"><tspan>Estimated TWh per Year</tspan></text><path fill="none" class="highcharts-axis-line" d="M 71 72 L 71 297"></path></g><g class="highcharts-series-group"><g class="highcharts-series highcharts-series-0 highcharts-line-series " transform="translate(71,72) scale(1 1)" clip-path="url(#highcharts-5s0t7wo-9)"><path fill="none" d="M -17.3 178.71664667471578 L 0 174.7122967948024 L 17.3 167.85169497578295 L 34.6 163.53364396755666 L 51.9 159.34364664562074 L 69.2 155.1771819140226 L 86.5 150.84931310785356 L 103.8 146.53776960450705 L 121.1 139.39428881275933 L 138.4 135.17230526285198 L 155.7 131.1243866856405 L 173 127.00896935263825 L 190.3 122.74518046664312 L 207.6 118.35452936707767 L 224.9 113.87874214223334 L 242.2 106.64042598946449 L 259.5 102.38294216917186 L 276.8 98.22488381968832 L 294.1 94.08407862951944 L 311.4 89.92826865170616 L 328.7 86.08869595583053 L 346 79.50752526561925 L 363.3 75.65345097843277 L 380.6 71.83695670210756 L 397.9 68.04476615106103 L 415.2 64.39695796213246 L 432.5 60.80593367927008 L 449.8 54.36305869011488 L 467.1 50.770124741864095 L 484.4 47.034903534725174 L 501.7 43.29610226516533 L 519 39.674752064304386" class="highcharts-graph" stroke="#000000" stroke-width="5" stroke-linejoin="round" stroke-linecap="round"  stroke-opacity="0.049999999999999996" transform="translate(1, 1)"></path><path fill="none" d="M -17.3 178.71664667471578 L 0 174.7122967948024 L 17.3 167.85169497578295 L 34.6 163.53364396755666 L 51.9 159.34364664562074 L 69.2 155.1771819140226 L 86.5 150.84931310785356 L 103.8 146.53776960450705 L 121.1 139.39428881275933 L 138.4 135.17230526285198 L 155.7 131.1243866856405 L 173 127.00896935263825 L 190.3 122.74518046664312 L 207.6 118.35452936707767 L 224.9 113.87874214223334 L 242.2 106.64042598946449 L 259.5 102.38294216917186 L 276.8 98.22488381968832 L 294.1 94.08407862951944 L 311.4 89.92826865170616 L 328.7 86.08869595583053 L 346 79.50752526561925 L 363.3 75.65345097843277 L 380.6 71.83695670210756 L 397.9 68.04476615106103 L 415.2 64.39695796213246 L 432.5 60.80593367927008 L 449.8 54.36305869011488 L 467.1 50.770124741864095 L 484.4 47.034903534725174 L 501.7 43.29610226516533 L 519 39.674752064304386" class="highcharts-graph" stroke="#000000" stroke-width="3" stroke-linejoin="round" stroke-linecap="round"  stroke-opacity="0.09999999999999999" transform="translate(1, 1)"></path><path fill="none" d="M -17.3 178.71664667471578 L 0 174.7122967948024 L 17.3 167.85169497578295 L 34.6 163.53364396755666 L 51.9 159.34364664562074 L 69.2 155.1771819140226 L 86.5 150.84931310785356 L 103.8 146.53776960450705 L 121.1 139.39428881275933 L 138.4 135.17230526285198 L 155.7 131.1243866856405 L 173 127.00896935263825 L 190.3 122.74518046664312 L 207.6 118.35452936707767 L 224.9 113.87874214223334 L 242.2 106.64042598946449 L 259.5 102.38294216917186 L 276.8 98.22488381968832 L 294.1 94.08407862951944 L 311.4 89.92826865170616 L 328.7 86.08869595583053 L 346 79.50752526561925 L 363.3 75.65345097843277 L 380.6 71.83695670210756 L 397.9 68.04476615106103 L 415.2 64.39695796213246 L 432.5 60.80593367927008 L 449.8 54.36305869011488 L 467.1 50.770124741864095 L 484.4 47.034903534725174 L 501.7 43.29610226516533 L 519 39.674752064304386" class="highcharts-graph" stroke="#000000" stroke-width="1" stroke-linejoin="round" stroke-linecap="round"  stroke-opacity="0.15" transform="translate(1, 1)"></path><path fill="none" d="M -17.3 178.71664667471578 L 0 174.7122967948024 L 17.3 167.85169497578295 L 34.6 163.53364396755666 L 51.9 159.34364664562074 L 69.2 155.1771819140226 L 86.5 150.84931310785356 L 103.8 146.53776960450705 L 121.1 139.39428881275933 L 138.4 135.17230526285198 L 155.7 131.1243866856405 L 173 127.00896935263825 L 190.3 122.74518046664312 L 207.6 118.35452936707767 L 224.9 113.87874214223334 L 242.2 106.64042598946449 L 259.5 102.38294216917186 L 276.8 98.22488381968832 L 294.1 94.08407862951944 L 311.4 89.92826865170616 L 328.7 86.08869595583053 L 346 79.50752526561925 L 363.3 75.65345097843277 L 380.6 71.83695670210756 L 397.9 68.04476615106103 L 415.2 64.39695796213246 L 432.5 60.80593367927008 L 449.8 54.36305869011488 L 467.1 50.770124741864095 L 484.4 47.034903534725174 L 501.7 43.29610226516533 L 519 39.674752064304386" class="highcharts-graph" stroke="#f45b5b" stroke-width="2" stroke-linejoin="round" stroke-linecap="round"></path></g><g class="highcharts-markers highcharts-series-0 highcharts-line-series " transform="translate(71,72) scale(1 1)" clip-path="none"><path fill="#f45b5b" d="M 4 175 A 4 4 0 1 1 3.9999980000001667 174.99600000066667 Z" class="highcharts-point"></path><path fill="#f45b5b" d="M 21 168 A 4 4 0 1 1 20.99999800000017 167.99600000066667 Z" class="highcharts-point"></path><path fill="#f45b5b" d="M 38 164 A 4 4 0 1 1 37.99999800000017 163.99600000066667 Z" class="highcharts-point"></path><path fill="#f45b5b" d="M 55 159 A 4 4 0 1 1 54.99999800000017 158.99600000066667 Z" class="highcharts-point"></path><path fill="#f45b5b" d="M 73 155 A 4 4 0 1 1 72.99999800000016 154.99600000066667 Z" class="highcharts-point"></path><path fill="#f45b5b" d="M 90 151 A 4 4 0 1 1 89.99999800000016 150.99600000066667 Z" class="highcharts-point"></path><path fill="#f45b5b" d="M 107 147 A 4 4 0 1 1 106.99999800000016 146.99600000066667 Z" class="highcharts-point"></path><path fill="#f45b5b" d="M 125 139 A 4 4 0 1 1 124.99999800000016 138.99600000066667 Z" class="highcharts-point"></path><path fill="#f45b5b" d="M 142 135 A 4 4 0 1 1 141.99999800000018 134.99600000066667 Z" class="highcharts-point"></path><path fill="#f45b5b" d="M 159 131 A 4 4 0 1 1 158.99999800000018 130.99600000066667 Z" class="highcharts-point"></path><path fill="#f45b5b" d="M 177 127 A 4 4 0 1 1 176.99999800000018 126.99600000066667 Z" class="highcharts-point"></path><path fill="#f45b5b" d="M 194 123 A 4 4 0 1 1 193.99999800000018 122.99600000066667 Z" class="highcharts-point"></path><path fill="#f45b5b" d="M 211 118 A 4 4 0 1 1 210.99999800000018 117.99600000066667 Z" class="highcharts-point"></path><path fill="#f45b5b" d="M 228 114 A 4 4 0 1 1 227.99999800000018 113.99600000066667 Z" class="highcharts-point"></path><path fill="#f45b5b" d="M 246 107 A 4 4 0 1 1 245.99999800000018 106.99600000066667 Z" class="highcharts-point"></path><path fill="#f45b5b" d="M 263 102 A 4 4 0 1 1 262.9999980000002 101.99600000066667 Z" class="highcharts-point"></path><path fill="#f45b5b" d="M 280 98 A 4 4 0 1 1 279.9999980000002 97.99600000066667 Z" class="highcharts-point"></path><path fill="#f45b5b" d="M 298 94 A 4 4 0 1 1 297.9999980000002 93.99600000066667 Z" class="highcharts-point"></path><path fill="#f45b5b" d="M 315 90 A 4 4 0 1 1 314.9999980000002 89.99600000066667 Z" class="highcharts-point"></path><path fill="#f45b5b" d="M 332 86 A 4 4 0 1 1 331.9999980000002 85.99600000066667 Z" class="highcharts-point"></path><path fill="#f45b5b" d="M 350 80 A 4 4 0 1 1 349.9999980000002 79.99600000066667 Z" class="highcharts-point"></path><path fill="#f45b5b" d="M 367 76 A 4 4 0 1 1 366.9999980000002 75.99600000066667 Z" class="highcharts-point"></path><path fill="#f45b5b" d="M 384 72 A 4 4 0 1 1 383.9999980000002 71.99600000066667 Z" class="highcharts-point"></path><path fill="#f45b5b" d="M 401 68 A 4 4 0 1 1 400.9999980000002 67.99600000066667 Z" class="highcharts-point"></path><path fill="#f45b5b" d="M 419 64 A 4 4 0 1 1 418.9999980000002 63.99600000066666 Z" class="highcharts-point"></path><path fill="#f45b5b" d="M 436 61 A 4 4 0 1 1 435.9999980000002 60.99600000066666 Z" class="highcharts-point"></path><path fill="#f45b5b" d="M 453 54 A 4 4 0 1 1 452.9999980000002 53.99600000066666 Z" class="highcharts-point"></path><path fill="#f45b5b" d="M 471 51 A 4 4 0 1 1 470.9999980000002 50.99600000066666 Z" class="highcharts-point"></path><path fill="#f45b5b" d="M 488 47 A 4 4 0 1 1 487.9999980000002 46.99600000066666 Z" class="highcharts-point"></path><path fill="#f45b5b" d="M 505 43 A 4 4 0 1 1 504.9999980000002 42.99600000066666 Z" class="highcharts-point"></path><path fill="#f45b5b" d="M 523 40 A 4 4 0 1 1 522.9999980000001 39.99600000066666 Z" class="highcharts-point"></path></g></g><text x="300" text-anchor="middle" class="highcharts-title" style="color:#000000;font-size:18px;font-family:&quot;Lucida Grande&quot;, &quot;Lucida Sans Unicode&quot;, Verdana, Arial, Helvetica, sans-serif;font-weight:normal;font-style:normal;fill:#000000;" y="24"><tspan>Bitcoin Energy Consumption Index Chart</tspan></text><text x="300" text-anchor="middle" class="highcharts-subtitle" style="color:#000000;font-family:&quot;Lucida Grande&quot;, &quot;Lucida Sans Unicode&quot;, Verdana, Arial, Helvetica, sans-serif;font-size:12px;font-weight:normal;font-style:normal;fill:#000000;" y="52"><tspan>Click and drag in the plot area to zoom in</tspan></text><g class="highcharts-axis-labels highcharts-xaxis-labels "><text x="88.3" style="color:#666666;cursor:default;font-size:11px;fill:#666666;" text-anchor="middle" transform="translate(0,0)" y="316" opacity="1"><tspan>23. Apr</tspan></text><text x="209.4" style="color:#666666;cursor:default;font-size:11px;fill:#666666;" text-anchor="middle" transform="translate(0,0)" y="316" opacity="1"><tspan>30. Apr</tspan></text><text x="330.5" style="color:#666666;cursor:default;font-size:11px;fill:#666666;" text-anchor="middle" transform="translate(0,0)" y="316" opacity="1"><tspan>7. May</tspan></text><text x="451.6" style="color:#666666;cursor:default;font-size:11px;fill:#666666;" text-anchor="middle" transform="translate(0,0)" y="316" opacity="1"><tspan>14. May</tspan></text><text x="568.59375" style="color:#666666;cursor:default;font-size:11px;fill:#666666;" text-anchor="middle" transform="translate(0,0)" y="316" opacity="1"><tspan>21. May</tspan></text></g><g class="highcharts-axis-labels highcharts-yaxis-labels "><text x="56" style="color:#666666;cursor:default;font-size:11px;fill:#666666;" text-anchor="end" transform="translate(0,0)" y="256" opacity="1">62</text><text x="56" style="color:#666666;cursor:default;font-size:11px;fill:#666666;" text-anchor="end" transform="translate(0,0)" y="211" opacity="1">64</text><text x="56" style="color:#666666;cursor:default;font-size:11px;fill:#666666;" text-anchor="end" transform="translate(0,0)" y="166" opacity="1">66</text><text x="56" style="color:#666666;cursor:default;font-size:11px;fill:#666666;" text-anchor="end" transform="translate(0,0)" y="121" opacity="1">68</text><text x="56" style="color:#666666;cursor:default;font-size:11px;fill:#666666;" text-anchor="end" transform="translate(0,0)" y="301" opacity="1">60</text><text x="56" style="color:#666666;cursor:default;font-size:11px;fill:#666666;" text-anchor="end" transform="translate(0,0)" y="76" opacity="1">70</text></g><g class="highcharts-range-selector-group" transform="translate(0,321)"><g class="highcharts-range-selector-buttons" transform="translate(0,10)"><text x="71" y="15" style="color:#666666;fill:#666666;">Zoom</text><g class="highcharts-button highcharts-button-pressed" style="cursor:pointer;" transform="translate(109,0)"><rect fill="#e6ebf5" class=" highcharts-button-box" x="0" y="0" width="32" height="22" rx="2" ry="2"></rect><text x="6.609375" style="font-weight:bold;color:#000000;fill:#000000;" y="14">1m</text></g><g class="highcharts-button highcharts-button-normal" style="cursor:pointer;" transform="translate(146,0)"><rect fill="#f7f7f7" class=" highcharts-button-box" x="0" y="0" width="32" height="22" rx="2" ry="2"></rect><text x="6.609375" style="font-weight:normal;color:#333333;fill:#333333;" y="14">3m</text></g><g class="highcharts-button highcharts-button-normal" style="cursor:pointer;" transform="translate(183,0)"><rect fill="#f7f7f7" class=" highcharts-button-box" x="0" y="0" width="32" height="22" rx="2" ry="2"></rect><text x="6.609375" style="font-weight:normal;color:#333333;fill:#333333;" y="14">6m</text></g><g class="highcharts-button highcharts-button-normal" style="cursor:pointer;" transform="translate(220,0)"><rect fill="#f7f7f7" class=" highcharts-button-box" x="0" y="0" width="32" height="22" rx="2" ry="2"></rect><text x="3.578125" style="font-weight:normal;color:#333333;fill:#333333;" y="14">YTD</text></g><g class="highcharts-button highcharts-button-normal" style="cursor:pointer;" transform="translate(257,0)"><rect fill="#f7f7f7" class=" highcharts-button-box" x="0" y="0" width="32" height="22" rx="2" ry="2"></rect><text x="8.609375" style="font-weight:normal;color:#333333;fill:#333333;" y="14">1y</text></g><g class="highcharts-button highcharts-button-normal" style="cursor:pointer;" transform="translate(294,0)"><rect fill="#f7f7f7" class=" highcharts-button-box" x="0" y="0" width="32" height="22" rx="2" ry="2"></rect><text x="7.9921875" style="font-weight:normal;color:#333333;fill:#333333;" y="14">All</text></g></g><g class="highcharts-input-group" transform="translate(328,42)"><g class="highcharts-label highcharts-range-label" transform="translate(0,0)" style="fill:#666666;"><text x="2" y="14" style="font-size:12px;font-family:&quot;Lucida Grande&quot;, &quot;Lucida Sans Unicode&quot;, Arial, Helvetica, sans-serif;color:#666666;fill:#666666;">From</text></g><g class="highcharts-label highcharts-range-input" transform="translate(39,0)"><rect fill="none" class="highcharts-label-box" x="0.5" y="0.5" width="94" height="21" stroke="#cccccc" stroke-width="1"></rect><text x="7.7734375" y="14" style="font-size:12px;font-family:&quot;Lucida Grande&quot;, &quot;Lucida Sans Unicode&quot;, Arial, Helvetica, sans-serif;color:#333333;fill:#333333;"><tspan>Apr 22, 2018</tspan></text></g><g class="highcharts-label highcharts-range-label" transform="translate(143,0)" style="fill:#666666;"><text x="2" y="14" style="font-size:12px;font-family:&quot;Lucida Grande&quot;, &quot;Lucida Sans Unicode&quot;, Arial, Helvetica, sans-serif;color:#666666;fill:#666666;">To</text></g><g class="highcharts-label highcharts-range-input" transform="translate(168,0)"><rect fill="none" class="highcharts-label-box" x="0.5" y="0.5" width="94" height="21" stroke="#cccccc" stroke-width="1"></rect><text x="6.9296875" y="14" style="font-size:12px;font-family:&quot;Lucida Grande&quot;, &quot;Lucida Sans Unicode&quot;, Arial, Helvetica, sans-serif;color:#333333;fill:#333333;"><tspan>May 22, 2018</tspan></text></g></g></g><text x="590" class="highcharts-credits" text-anchor="end" style="cursor:pointer;color:#999999;font-size:9px;fill:#999999;" y="395">BitcoinEnergyConsumption.com</text></svg>