<?xml version="1.0" standalone="no"?><!DOCTYPE svg PUBLIC "-//W3C//DTD SVG 1.1//EN" "http://www.w3.org/Graphics/SVG/1.1/DTD/svg11.dtd"><svg xmlns:xlink="http://www.w3.org/1999/xlink" version="1.1" class="highcharts-root" style="font-family:&quot;Lucida Grande&quot;, &quot;Lucida Sans Unicode&quot;, Arial, Helvetica, sans-serif;font-size:12px;" xmlns="http://www.w3.org/2000/svg" width="600" height="400" viewBox="0 0 600 400"><desc>Created with Highstock 6.1.0</desc><defs><clipPath id="highcharts-ak6s229-7"><rect x="0" y="0" width="509" height="310" fill="none"></rect></clipPath><clipPath id="highcharts-ak6s229-8"><rect x="0" y="0" width="509" height="310" fill="none"></rect></clipPath><clipPath id="highcharts-ak6s229-9"><rect x="81" y="53" width="509" height="310" fill="none"></rect></clipPath></defs><rect fill="none" class="highcharts-background" x="0" y="0" width="600" height="400" rx="0" ry="0"></rect><rect fill="none" class="highcharts-plot-background" x="81" y="53" width="509" height="310"></rect><g class="highcharts-pane-group"></g><g class="highcharts-grid highcharts-xaxis-grid "><path fill="none" class="highcharts-grid-line" d="M 335.5 53 L 335.5 363" opacity="1"></path><path fill="none" class="highcharts-grid-line" d="M 589.5 53 L 589.5 363" opacity="1"></path><path fill="none" class="highcharts-grid-line" d="M 80.5 53 L 80.5 363" opacity="1"></path></g><g class="highcharts-grid highcharts-yaxis-grid "><path fill="none" stroke="#e6e6e6" stroke-width="1" class="highcharts-grid-line" d="M 81 363.5 L 590 363.5" opacity="1"></path><path fill="none" stroke="#e6e6e6" stroke-width="1" class="highcharts-grid-line" d="M 81 286.5 L 590 286.5" opacity="1"></path><path fill="none" stroke="#e6e6e6" stroke-width="1" class="highcharts-grid-line" d="M 81 208.5 L 590 208.5" opacity="1"></path><path fill="none" stroke="#e6e6e6" stroke-width="1" class="highcharts-grid-line" d="M 81 131.5 L 590 131.5" opacity="1"></path><path fill="none" stroke="#e6e6e6" stroke-width="1" class="highcharts-grid-line" d="M 81 52.5 L 590 52.5" opacity="1"></path></g><rect fill="none" class="highcharts-plot-border" x="81" y="53" width="509" height="310"></rect><g class="highcharts-axis highcharts-xaxis "><path fill="none" class="highcharts-tick" stroke="#ccd6eb" stroke-width="1" d="M 335.5 363 L 335.5 373" opacity="1"></path><path fill="none" class="highcharts-tick" stroke="#ccd6eb" stroke-width="1" d="M 590.5 363 L 590.5 373" opacity="1"></path><path fill="none" class="highcharts-tick" stroke="#ccd6eb" stroke-width="1" d="M 80.5 363 L 80.5 373" opacity="1"></path><path fill="none" class="highcharts-axis-line" stroke="#ccd6eb" stroke-width="1" d="M 81 363.5 L 590 363.5"></path></g><g class="highcharts-axis highcharts-yaxis "><text x="25.546875" text-anchor="middle" transform="translate(0,0) rotate(270 25.546875 208)" class="highcharts-axis-title" style="color:#666666;fill:#666666;" y="208"><tspan>Kilowatt-hour</tspan></text><path fill="none" class="highcharts-axis-line" d="M 81 53 L 81 363"></path></g><g class="highcharts-series-group"><g class="highcharts-series highcharts-series-0 highcharts-column-series highcharts-color-0 " transform="translate(81,53) scale(1 1)" clip-path="url(#highcharts-ak6s229-8)"><rect x="81" y="17" width="92" height="294" fill="none"  stroke="#000000" stroke-opacity="0.049999999999999996" stroke-width="5" transform="translate(1, 1)"></rect><rect x="81" y="17" width="92" height="294" fill="none"  stroke="#000000" stroke-opacity="0.09999999999999999" stroke-width="3" transform="translate(1, 1)"></rect><rect x="81" y="17" width="92" height="294" fill="none"  stroke="#000000" stroke-opacity="0.15" stroke-width="1" transform="translate(1, 1)"></rect><rect x="81" y="17" width="92" height="294" fill="#f45b5b" class="highcharts-point highcharts-color-0"></rect><rect x="336" y="259" width="92" height="52" fill="none"  stroke="#000000" stroke-opacity="0.049999999999999996" stroke-width="5" transform="translate(1, 1)"></rect><rect x="336" y="259" width="92" height="52" fill="none"  stroke="#000000" stroke-opacity="0.09999999999999999" stroke-width="3" transform="translate(1, 1)"></rect><rect x="336" y="259" width="92" height="52" fill="none"  stroke="#000000" stroke-opacity="0.15" stroke-width="1" transform="translate(1, 1)"></rect><rect x="336" y="259" width="92" height="52" fill="#f45b5b" class="highcharts-point highcharts-color-0"></rect></g><g class="highcharts-markers highcharts-series-0 highcharts-column-series highcharts-color-0 " transform="translate(81,53) scale(1 1)" clip-path="none"></g></g><text x="300" text-anchor="middle" class="highcharts-title" style="color:black;font-size:18px;fill:black;" y="24"><tspan>Bitcoin network versus VISA network average consumption</tspan></text><text x="300" text-anchor="middle" class="highcharts-subtitle" style="color:black;fill:black;" y="52"></text><g class="highcharts-axis-labels highcharts-xaxis-labels "><text x="208.25" style="color:#6e6e70;cursor:default;font-size:11px;fill:#6e6e70;" text-anchor="middle" transform="translate(0,0)" y="382" opacity="1"><tspan>1 Bitcoin transaction</tspan></text><text x="462.75" style="color:#6e6e70;cursor:default;font-size:11px;fill:#6e6e70;" text-anchor="middle" transform="translate(0,0)" y="382" opacity="1"><tspan>100,000 VISA transactions</tspan></text></g><g class="highcharts-axis-labels highcharts-yaxis-labels "><text x="66" style="color:#6e6e70;cursor:default;font-size:11px;fill:#6e6e70;" text-anchor="end" transform="translate(0,0)" y="367" opacity="1">0</text><text x="66" style="color:#6e6e70;cursor:default;font-size:11px;fill:#6e6e70;" text-anchor="end" transform="translate(0,0)" y="290" opacity="1">250</text><text x="66" style="color:#6e6e70;cursor:default;font-size:11px;fill:#6e6e70;" text-anchor="end" transform="translate(0,0)" y="212" opacity="1">500</text><text x="66" style="color:#6e6e70;cursor:default;font-size:11px;fill:#6e6e70;" text-anchor="end" transform="translate(0,0)" y="135" opacity="1">750</text><text x="66" style="color:#6e6e70;cursor:default;font-size:11px;fill:#6e6e70;" text-anchor="end" transform="translate(0,0)" y="57" opacity="1">1000</text></g><text x="590" class="highcharts-credits" text-anchor="end" style="cursor:pointer;color:#999999;font-size:9px;fill:#999999;" y="395">BitcoinEnergyConsumption.com</text></svg>